<svg width="113" height="70" viewBox="0 0 113 70" fill="none" xmlns="http://www.w3.org/2000/svg">
<g clip-path="url(#clip0_1027_8)">
<path d="M104.849 2.71631H8.14754C5.14714 2.71631 2.71484 5.14861 2.71484 8.149V61.3894C2.71484 64.3898 5.14714 66.8221 8.14754 66.8221H104.849C107.85 66.8221 110.282 64.3898 110.282 61.3894V8.149C110.282 5.14861 107.85 2.71631 104.849 2.71631Z" stroke="black" stroke-width="5.43269"/>
<path d="M16.2969 53.2404V16.2981H27.1623L38.0276 29.8798L48.893 16.2981H59.7584V53.2404H48.893V32.0529L38.0276 45.6346L27.1623 32.0529V53.2404H16.2969ZM84.2055 53.2404L67.9075 35.3125H78.7728V16.2981H89.6382V35.3125H100.504L84.2055 53.2404Z" fill="black"/>
</g>
<defs>
<clipPath id="clip0_1027_8">
<rect width="113" height="69.5385" fill="white"/>
</clipPath>
</defs>
</svg>
