<svg width="108" height="44" viewBox="0 0 108 44" fill="none" xmlns="http://www.w3.org/2000/svg">
<g clip-path="url(#clip0_1027_29)">
<mask id="mask0_1027_29" style="mask-type:luminance" maskUnits="userSpaceOnUse" x="0" y="0" width="108" height="44">
<path d="M107.789 0H0V43.816H107.789V0Z" fill="white"/>
</mask>
<g mask="url(#mask0_1027_29)">
<path d="M24.7227 43.5865V32.5482L24.9528 32.3179H27.2523L27.4824 32.5482V43.5865L27.2523 43.8168H24.9528L24.7227 43.5865Z" fill="black"/>
<path d="M24.7227 11.2679V0.230187L24.9528 0H27.2523L27.4824 0.230187V11.2679L27.2523 11.4981H24.9528L24.7227 11.2679Z" fill="black"/>
<path d="M14.7283 35.629H14.4031L12.7773 34.0024V33.6772L16.5738 29.8816L18.2954 29.8824L18.5264 30.1117V31.8334L14.7283 35.629Z" fill="black"/>
<path d="M14.7283 8.1875H14.4031L12.7773 9.81411V10.1393L16.5738 13.9349L18.2954 13.9341L18.5264 13.7047V11.9832L14.7283 8.1875Z" fill="black"/>
<path d="M0.230187 20.5283H15.8676L16.0978 20.7585V23.0579L15.8676 23.2882H0.230187L0 23.0579V20.7585L0.230187 20.5283Z" fill="black"/>
<path d="M92.8409 20.5283H107.559L107.789 20.7585V23.0579L107.559 23.2882H91.9217L91.6914 23.0579L92.6106 20.7585L92.8409 20.5283Z" fill="black"/>
<path d="M44.6433 22.8899L44.4132 23.1202H37.2798L37.0497 23.3503C37.0497 23.8107 37.5101 25.191 39.3507 25.191C40.0412 25.191 40.7309 24.9609 40.9612 24.5004L41.1913 24.2703H43.9528L44.1829 24.5004C43.9528 25.8809 42.8027 27.9524 39.3507 27.9524C35.4391 27.9524 33.5977 25.191 33.5977 21.9699C33.5977 18.749 35.4383 15.9875 39.1204 15.9875C42.8027 15.9875 44.6433 18.749 44.6433 21.9699V22.8907V22.8899ZM41.1913 20.5889C41.1913 20.3587 40.9612 18.7482 39.1204 18.7482C37.2798 18.7482 37.0497 20.3587 37.0497 20.5889L37.2798 20.8191H40.9612L41.1913 20.5889Z" fill="black"/>
<path d="M51.0889 24.2705C51.0889 24.7307 51.319 24.961 51.7794 24.961H53.8501L54.0805 25.1911V27.4922L53.8501 27.7225H51.7794C49.7085 27.7225 47.8678 26.8017 47.8678 24.2705V19.2079L47.6375 18.9778H46.0272L45.7969 18.7476V16.4465L46.0272 16.2163H47.6375L47.8678 15.9861V13.9152L48.0979 13.6851H50.8594L51.0895 13.9152V15.9861L51.3198 16.2163H53.851L54.0813 16.4465V18.7476L53.851 18.9778H51.3198L51.0895 19.2079V24.2705H51.0889Z" fill="black"/>
<path d="M59.5973 27.7223H56.8358L56.6055 27.492V11.8449L56.8358 11.6147H59.5973L59.8274 11.8449V27.492L59.5973 27.7223Z" fill="black"/>
<path d="M65.816 14.3762H63.0545L62.8242 14.146V11.8449L63.0545 11.6147H65.816L66.0461 11.8449V14.146L65.816 14.3762ZM65.816 27.7223H63.0545L62.8242 27.492V16.4471L63.0545 16.2169H65.816L66.0461 16.4471V27.492L65.816 27.7223Z" fill="black"/>
<path d="M76.6282 11.8449V14.146L76.3979 14.3762H74.3271C73.8667 14.3762 73.6364 14.6064 73.6364 15.0667V15.9875L73.8667 16.2177H76.1678L76.3979 16.4479V18.7489L76.1678 18.9791H73.8667L73.6364 19.2093V27.4928L73.4063 27.7229H70.6448L70.4147 27.4928V19.2093L70.1844 18.9791H68.5741L68.3438 18.7489V16.4479L68.5741 16.2177H70.1844L70.4147 15.9875V15.0667C70.4147 12.5355 72.2553 11.6147 74.3263 11.6147H76.397L76.6273 11.8449H76.6282Z" fill="black"/>
<path d="M85.1413 27.9526C84.2204 30.2537 83.3006 31.6341 80.0788 31.6341H78.9278L78.6977 31.4038V29.1027L78.9278 28.8726H80.0788C81.2289 28.8726 81.459 28.6423 81.6893 27.9518V27.7217L78.0078 18.7476V16.4465L78.2381 16.2163H80.3089L80.5392 16.4465L83.3007 24.2705H83.5308L86.2922 16.4465L86.5223 16.2163H88.5933L88.8234 16.4465V18.7476L85.1421 27.9518L85.1413 27.9526Z" fill="black"/>
<path d="M28.5216 27.7222L28.2914 27.4919L28.2929 20.8246C28.2929 19.6745 27.8407 18.7827 26.4523 18.7537C25.7384 18.7352 24.9216 18.7521 24.0489 18.7891L23.9186 18.9227L23.9203 27.4919L23.69 27.7222H20.9294L20.6992 27.4919V16.3239L20.9294 16.0937L27.142 16.0374C30.2544 16.0374 31.514 18.1758 31.514 20.5896V27.4919L31.2839 27.7222H28.5216Z" fill="black"/>
</g>
</g>
<defs>
<clipPath id="clip0_1027_29">
<rect width="107.789" height="44" fill="white"/>
</clipPath>
</defs>
</svg>
