<svg width="23" height="21" viewBox="0 0 23 21" fill="none" xmlns="http://www.w3.org/2000/svg">
<g clip-path="url(#clip0_1027_2)">
<path d="M11.4992 12.2816C12.6314 12.2816 13.5492 11.3638 13.5492 10.2316C13.5492 9.09946 12.6314 8.18164 11.4992 8.18164C10.367 8.18164 9.44922 9.09946 9.44922 10.2316C9.44922 11.3638 10.367 12.2816 11.4992 12.2816Z" fill="black"/>
<path d="M11.5 14.4317C17.5751 14.4317 22.5 12.5513 22.5 10.2317C22.5 7.91214 17.5751 6.03174 11.5 6.03174C5.42487 6.03174 0.5 7.91214 0.5 10.2317C0.5 12.5513 5.42487 14.4317 11.5 14.4317Z" stroke="black"/>
<path d="M7.86211 12.3317C10.8997 17.593 14.9906 20.9178 16.9994 19.758C19.0082 18.5982 18.1743 13.393 15.1367 8.13175C12.0992 2.87053 8.00824 -0.454329 5.99941 0.705469C3.99058 1.86527 4.82454 7.07053 7.86211 12.3317Z" stroke="black"/>
<path d="M7.86211 8.1317C4.82454 13.3929 3.99058 18.5982 5.99941 19.758C8.00824 20.9178 12.0992 17.5929 15.1367 12.3317C18.1743 7.07048 19.0082 1.86522 16.9994 0.70542C14.9906 -0.454378 10.8997 2.87048 7.86211 8.1317Z" stroke="black"/>
</g>
<defs>
<clipPath id="clip0_1027_2">
<rect width="23" height="20.4635" fill="white"/>
</clipPath>
</defs>
</svg>
